HIERARCHY
ROOT Hips
{
	OFFSET 0.000000 0.000000 0.000000
	CHANNELS 6 Xposition Yposition Zposition Zrotation Yrotation Xrotation 
	JOINT LHipJoint
	{
		OFFSET 0.000000 0.000000 0.000000
		CHANNELS 3 Zrotation Yrotation Xrotation
		JOINT LeftUpLeg
		{
			OFFSET 1.363060 -1.794630 0.839290
			CHANNELS 3 Zrotation Yrotation Xrotation
			JOINT LeftLeg
			{
				OFFSET 2.448110 -6.726130 0.000000
				CHANNELS 3 Zrotation Yrotation Xrotation
				JOINT LeftFoot
				{
					OFFSET 2.562200 -7.039590 0.000000
					CHANNELS 3 Zrotation Yrotation Xrotation
					JOINT LeftToeBase
					{
						OFFSET 0.157640 -0.433110 2.322550
						CHANNELS 3 Zrotation Yrotation Xrotation
						End Site
						{
							OFFSET 0.000000 0.000000 0.000000
						}
					}
				}
			}
		}
	}
	JOINT RHipJoint
	{
		OFFSET 0.000000 0.000000 0.000000
		CHANNELS 3 Zrotation Yrotation Xrotation
		JOINT RightUpLeg
		{
			OFFSET -1.305520 -1.794630 0.839290
			CHANNELS 3 Zrotation Yrotation Xrotation
			JOINT RightLeg
			{
				OFFSET -2.542530 -6.985550 0.000000
				CHANNELS 3 Zrotation Yrotation Xrotation
				JOINT RightFoot
				{
					OFFSET -2.568260 -7.056230 0.000000
					CHANNELS 3 Zrotation Yrotation Xrotation
					JOINT RightToeBase
					{
						OFFSET -0.164730 -0.452590 2.363150
						CHANNELS 3 Zrotation Yrotation Xrotation
						End Site
						{
							OFFSET 0.000000 0.000000 0.000000
						}
					}
				}
			}
		}
	}
}
MOTION
Frames: 16
Frame Time: 0.008333
1.757255 17.448569 -1.718896 135.758946 -68.037639 -122.931007 -5.556177 -3.724431 3.098515 12.253848 -16.217054 -102.746247 1.256618 2.415383 47.569891 3.019004 14.750589 14.966276 6.391500 -0.000000 -53.253700 9.195423 3.669507 -4.349866 -3.969006 6.990003 -13.861773 0.412979 -0.469330 13.559102 -1.071729 -4.065919 -4.914671 -0.538400 0.000001 -49.549200
1.771417 17.450450 -1.714901 136.305798 -67.906011 -123.259783 -5.550890 -3.540583 3.290883 12.483455 -15.863870 -101.517022 1.016699 2.096051 42.836756 2.968195 14.679910 15.143151 6.513100 -0.000000 -52.671600 9.228627 3.726472 -4.387156 -4.017129 7.252289 -14.024467 0.401778 -0.474087 13.490189 -1.071717 -4.088917 -4.800770 -0.551900 0.000000 -49.597800
1.785226 17.452251 -1.711171 136.916066 -67.761158 -123.674469 -5.554006 -3.364913 3.463535 12.575359 -15.494607 -100.041972 0.757976 1.751124 37.833842 2.885589 14.511781 15.432812 6.609700 -0.000000 -52.126100 9.266473 3.779802 -4.419523 -4.054367 7.530151 -14.164837 0.391399 -0.480022 13.419935 -1.069838 -4.102455 -4.684828 -0.564600 0.000000 -49.643600
1.798559 17.453943 -1.707870 137.590795 -67.596160 -124.184293 -5.563519 -3.205597 3.602879 12.497592 -15.099647 -98.318780 0.473724 1.383412 32.593958 2.758685 14.189862 15.808557 6.643200 -0.000000 -51.617500 9.307950 3.827431 -4.443989 -4.077811 7.823007 -14.275843 0.382236 -0.486477 13.343946 -1.065341 -4.103298 -4.564673 -0.576300 0.000000 -49.690700
1.811116 17.455578 -1.704753 138.342376 -67.405182 -124.810201 -5.575968 -3.072466 3.693386 12.217442 -14.665811 -96.349784 0.157905 0.997113 27.169039 2.575804 13.652937 16.251854 6.572500 -0.000000 -51.299601 9.351820 3.866931 -4.456704 -4.085957 8.128996 -14.351441 0.375329 -0.492784 13.260257 -1.056724 -4.083700 -4.440029 -0.586100 0.000000 -49.738800
1.822696 17.457057 -1.701775 139.175543 -67.176017 -125.570558 -5.586033 -2.975971 3.715755 11.691893 -14.174835 -94.146931 -0.196049 0.600646 21.649949 2.324665 12.816304 16.725654 6.340500 -0.000001 -51.182901 9.397165 3.896148 -4.453911 -4.077887 8.447718 -14.380125 0.371415 -0.498286 13.165165 -1.042269 -4.035039 -4.309467 -0.593300 -0.000000 -49.792500
1.833029 17.458339 -1.698807 140.090976 -66.895254 -126.480584 -5.587266 -2.925330 3.652483 10.874228 -13.605900 -91.741046 -0.591727 0.204965 16.159461 1.997136 11.591297 17.210011 5.893000 0.000000 -51.467800 9.443924 3.913565 -4.432016 -4.056566 8.774686 -14.353803 0.371439 -0.502672 13.060253 -1.019437 -3.943139 -4.174907 -0.596000 0.000000 -49.851501
1.841689 17.459335 -1.695619 141.082633 -66.550272 -127.544992 -5.573599 -2.924862 3.489093 9.700049 -12.937424 -89.193627 -1.032902 -0.175064 10.869166 1.587189 9.860693 17.656663 5.163100 0.000000 -52.134000 9.492230 3.918121 -4.388779 -4.026627 9.103510 -14.263060 0.376335 -0.505579 12.945669 -0.985563 -3.793084 -4.037100 -0.592300 0.000000 -49.923201
1.848346 17.459970 -1.692016 142.115038 -66.131265 -128.733386 -5.539650 -2.971736 3.223745 8.121542 -12.157156 -86.593404 -1.517792 -0.527883 5.953683 1.099983 7.535789 18.033309 4.111500 0.000000 -53.280900 9.543860 3.910787 -4.324309 -4.002095 9.414403 -14.111829 0.386595 -0.507294 12.829766 -0.937095 -3.562885 -3.900909 -0.578800 0.000001 -50.015200
1.852896 17.460115 -1.687732 143.139280 -65.637810 -130.000438 -5.483081 -3.053446 2.858617 6.050720 -11.249806 -84.075494 -2.052198 -0.838881 1.645831 0.540447 4.487352 18.247155 2.689600 -0.000000 -54.673201 9.600533 3.892683 -4.239892 -3.997162 9.683370 -13.908331 0.402552 -0.508041 12.721958 -0.871052 -3.232732 -3.771886 -0.552800 0.000001 -50.142500
1.854828 17.459750 -1.682760 144.072951 -65.076566 -131.239760 -5.403102 -3.152503 2.429413 3.602731 -10.248496 -81.727872 -2.605150 -1.114471 -1.991323 -0.044292 0.859074 18.308749 1.004800 0.000000 -56.473800 9.665246 3.868360 -4.141066 -4.041519 9.865449 -13.693602 0.423048 -0.508987 12.644086 -0.783933 -2.775777 -3.659489 -0.510300 0.000001 -50.313800
1.853789 17.458912 -1.676739 144.871534 -64.470001 -132.375482 -5.306150 -3.252101 1.982748 1.015440 -9.210641 -79.593728 -3.127511 -1.361688 -4.966557 -0.592271 -3.039533 18.221636 -0.763800 0.000000 -58.493100 9.736992 3.842239 -4.035581 -4.147305 9.935280 -13.506550 0.447134 -0.510636 12.610138 -0.676499 -2.189067 -3.570424 -0.450899 0.000000 -50.535300
1.849648 17.457339 -1.669298 145.553707 -63.853809 -133.396168 -5.208148 -3.334201 1.552710 -1.557442 -8.171902 -77.743470 -3.595043 -1.570783 -7.213866 -1.068463 -6.967106 17.940250 -2.477200 -0.000000 -60.396000 9.807859 3.813386 -3.925108 -4.288809 9.910917 -13.371882 0.475129 -0.511182 12.621836 -0.555786 -1.508618 -3.508915 -0.379500 0.000000 -50.790200
1.842097 17.455141 -1.660109 146.163391 -63.275481 -134.296355 -5.127603 -3.363694 1.202291 -3.781223 -7.244583 -76.528792 -3.983805 -1.682575 -8.126616 -1.378711 -10.464424 17.120818 -3.918000 -0.000001 -62.059800 9.871383 3.783660 -3.817827 -4.433256 9.829001 -13.310462 0.507142 -0.509923 12.670767 -0.431840 -0.790713 -3.474462 -0.303501 0.000000 -51.053401
1.831271 17.452438 -1.649039 146.765421 -62.786866 -135.102555 -5.081450 -3.290711 0.981055 -5.423080 -6.541986 -76.548474 -4.325676 -1.581593 -6.576167 -1.350726 -13.196292 15.136856 -4.960300 -0.000000 -63.429499 9.920056 3.750974 -3.717733 -4.531222 9.758808 -13.319722 0.543221 -0.506000 12.732787 -0.318161 -0.119674 -3.457327 -0.233500 -0.000001 -51.300200
1.817752 17.449296 -1.636721 147.378209 -62.353281 -135.869107 -5.079944 -3.238235 0.815484 -6.522514 -5.926230 -76.148784 -4.532068 -1.499454 -5.536461 -1.237487 -14.942756 13.776476 -5.591600 0.000000 -64.680800 9.946893 3.713817 -3.615599 -4.577129 9.716375 -13.368747 0.581136 -0.498564 12.811232 -0.218414 0.480792 -3.462864 -0.172200 -0.000000 -51.501400
